/usr/bin/ffmpeg -hide_banner -y -y -r 24 -start_number 0 -start_number_range 1 -i /home/octopus/Desktop/projects/Web development/Eco Mind/Main/static/Assets/Images/frame%04d.png -i /home/octopus/Desktop/projects/Web development/Eco Mind/Main/static/Assets/Images/KritaTempPalettegen_%06d.png -lavfi [0:v][1:v]paletteuse=dither=sierra2_4a:diff_mode=none -f gif -loop 0 -gifflags +transdiff /home/octopus/Desktop/projects/Web development/Eco Mind/Main/static/Assets/Images/owl.gif
=====================================================
Input #0, image2, from '/home/octopus/Desktop/projects/Web development/Eco Mind/Main/static/Assets/Images/frame%04d.png':
  Duration: 00:00:01.56, start: 0.000000, bitrate: N/A
  Stream #0:0: Video: png, rgba(pc, gbr/unknown/unknown), 1024x1536 [SAR 2834:2834 DAR 2:3], 25 fps, 25 tbr, 25 tbn
Input #1, image2, from '/home/octopus/Desktop/projects/Web development/Eco Mind/Main/static/Assets/Images/KritaTempPalettegen_%06d.png':
  Duration: 00:00:00.04, start: 0.000000, bitrate: N/A
  Stream #1:0: Video: png, rgba(pc, gbr/unknown/unknown), 16x16 [SAR 1:1 DAR 1:1], 25 fps, 25 tbr, 25 tbn
Stream mapping:
  Stream #0:0 (png) -> paletteuse
  Stream #1:0 (png) -> paletteuse
  paletteuse:default -> Stream #0:0 (gif)
Press [q] to stop, [?] for help
Output #0, gif, to '/home/octopus/Desktop/projects/Web development/Eco Mind/Main/static/Assets/Images/owl.gif':
  Metadata:
    encoder         : Lavf62.3.100
  Stream #0:0: Video: gif, pal8(pc, gbr/unknown/unknown, progressive), 1024x1536 [SAR 1:1 DAR 2:3], q=2-31, 200 kb/s, 24 fps, 100 tbn
    Metadata:
      encoder         : Lavc62.11.100 gif
frame=    1 fps=0.7 q=-0.0 size=       0KiB time=00:00:00.04 bitrate=   0.0kbits/s speed=0.0278x elapsed=0:00:01.50    frame=    3 fps=1.5 q=-0.0 size=     512KiB time=00:00:00.12 bitrate=33554.4kbits/s speed=0.0625x elapsed=0:00:02.00    frame=    4 fps=1.6 q=-0.0 size=    1024KiB time=00:00:00.16 bitrate=50331.5kbits/s speed=0.0666x elapsed=0:00:02.50    frame=    5 fps=1.7 q=-0.0 size=    1792KiB time=00:00:00.20 bitrate=70464.4kbits/s speed=0.0694x elapsed=0:00:03.00    frame=    6 fps=1.7 q=-0.0 size=    2304KiB time=00:00:00.25 bitrate=75497.5kbits/s speed=0.0714x elapsed=0:00:03.50    frame=    8 fps=2.0 q=-0.0 size=    3584KiB time=00:00:00.33 bitrate=88080.5kbits/s speed=0.0833x elapsed=0:00:04.00    frame=    9 fps=2.0 q=-0.0 size=    4096KiB time=00:00:00.37 bitrate=89478.5kbits/s speed=0.0833x elapsed=0:00:04.50    frame=   10 fps=2.0 q=-0.0 size=    4864KiB time=00:00:00.41 bitrate=95630.1kbits/s speed=0.0833x elapsed=0:00:05.00    frame=   12 fps=2.2 q=-0.0 size=    6144KiB time=00:00:00.50 bitrate=100663.3kbits/s speed=0.0909x elapsed=0:00:05.50    frame=   13 fps=2.2 q=-0.0 size=    6656KiB time=00:00:00.54 bitrate=100663.2kbits/s speed=0.0902x elapsed=0:00:06.00    frame=   14 fps=2.2 q=-0.0 size=    7424KiB time=00:00:00.58 bitrate=104258.5kbits/s speed=0.0897x elapsed=0:00:06.50    frame=   16 fps=2.3 q=-0.0 size=    8448KiB time=00:00:00.66 bitrate=103809.0kbits/s speed=0.0952x elapsed=0:00:07.00    frame=   17 fps=2.3 q=-0.0 size=    9216KiB time=00:00:00.70 bitrate=106584.7kbits/s speed=0.0944x elapsed=0:00:07.50    frame=   19 fps=2.4 q=-0.0 size=   10240KiB time=00:00:00.79 bitrate=105961.3kbits/s speed=0.0989x elapsed=0:00:08.00    frame=   20 fps=2.4 q=-0.0 size=   11008KiB time=00:00:00.83 bitrate=108213.1kbits/s speed=0.098x elapsed=0:00:08.50    frame=   21 fps=2.3 q=-0.0 size=   11520KiB time=00:00:00.87 bitrate=107853.5kbits/s speed=0.0972x elapsed=0:00:09.00    frame=   23 fps=2.4 q=-0.0 size=   12800KiB time=00:00:00.95 bitrate=109416.7kbits/s speed=0.101x elapsed=0:00:09.50    frame=   24 fps=2.4 q=-0.0 size=   13312KiB time=00:00:01.00 bitrate=109051.9kbits/s speed=0.0999x elapsed=0:00:10.00    frame=   25 fps=2.4 q=-0.0 size=   14080KiB time=00:00:01.04 bitrate=110729.6kbits/s speed=0.0991x elapsed=0:00:10.50    frame=   27 fps=2.5 q=-0.0 size=   15360KiB time=00:00:01.12 bitrate=111848.1kbits/s speed=0.102x elapsed=0:00:11.00    frame=   28 fps=2.4 q=-0.0 size=   15872KiB time=00:00:01.16 bitrate=111448.6kbits/s speed=0.101x elapsed=0:00:11.50    frame=   29 fps=2.4 q=-0.0 size=   16640KiB time=00:00:01.20 bitrate=112812.3kbits/s speed=0.101x elapsed=0:00:12.00    frame=   31 fps=2.5 q=-0.0 size=   17664KiB time=00:00:01.29 bitrate=112028.5kbits/s speed=0.103x elapsed=0:00:12.50    frame=   32 fps=2.5 q=-0.0 size=   18432KiB time=00:00:01.33 bitrate=113246.2kbits/s speed=0.102x elapsed=0:00:13.00    frame=   33 fps=2.4 q=-0.0 size=   18944KiB time=00:00:01.37 bitrate=112864.9kbits/s speed=0.102x elapsed=0:00:13.50    frame=   35 fps=2.5 q=-0.0 size=   20224KiB time=00:00:01.45 bitrate=113605.7kbits/s speed=0.104x elapsed=0:00:14.00    frame=   36 fps=2.5 q=-0.0 size=   20992KiB time=00:00:01.50 bitrate=114644.3kbits/s speed=0.103x elapsed=0:00:14.50    frame=   37 fps=2.5 q=-0.0 size=   21504KiB time=00:00:01.54 bitrate=114266.4kbits/s speed=0.103x elapsed=0:00:15.00    [out#0/gif @ 0x55abe84f9980] video:24116KiB audio:0KiB subtitle:0KiB other streams:0KiB global headers:0KiB muxing overhead: 0.000081%
frame=   39 fps=2.5 q=-0.0 Lsize=   24116KiB time=00:00:01.62 bitrate=121574.5kbits/s speed=0.104x elapsed=0:00:15.55    
